<mxfile host="app.diagrams.net" agent="Mozilla/5.0 (Windows NT 10.0; Win64; x64) AppleWebKit/537.36 (KHTML, like Gecko) Chrome/129.0.0.0 Safari/537.36" version="24.8.0">
  <diagram id="iSdH8Bf3Pxa846-qju2B" name="Шаблон">
    <mxGraphModel dx="1050" dy="562" grid="1" gridSize="10" guides="1" tooltips="1" connect="1" arrows="1" fold="1" page="1" pageScale="1" pageWidth="827" pageHeight="1169" math="0" shadow="0">
      <root>
        <mxCell id="0" />
        <mxCell id="1" parent="0" />
        <mxCell id="5DFN9uElky3kn-lGwo1o-1" value="" style="shape=table;startSize=0;container=1;collapsible=0;childLayout=tableLayout;" parent="1" vertex="1">
          <mxGeometry x="88" y="40" width="600" height="890" as="geometry" />
        </mxCell>
        <mxCell id="5DFN9uElky3kn-lGwo1o-6" value="" style="shape=tableRow;horizontal=0;startSize=0;swimlaneHead=0;swimlaneBody=0;strokeColor=inherit;top=0;left=0;bottom=0;right=0;collapsible=0;dropTarget=0;fillColor=none;points=[[0,0.5],[1,0.5]];portConstraint=eastwest;" parent="5DFN9uElky3kn-lGwo1o-1" vertex="1">
          <mxGeometry width="600" height="43" as="geometry" />
        </mxCell>
        <mxCell id="5DFN9uElky3kn-lGwo1o-7" value="&lt;b&gt;Заголовок&lt;/b&gt;" style="shape=partialRectangle;html=1;whiteSpace=wrap;connectable=0;strokeColor=inherit;overflow=hidden;fillColor=none;top=0;left=0;bottom=0;right=0;pointerEvents=1;" parent="5DFN9uElky3kn-lGwo1o-6" vertex="1">
          <mxGeometry width="160" height="43" as="geometry">
            <mxRectangle width="160" height="43" as="alternateBounds" />
          </mxGeometry>
        </mxCell>
        <mxCell id="5DFN9uElky3kn-lGwo1o-9" value="Отправка собранной корзины&amp;nbsp; другому пользователю приложения" style="shape=partialRectangle;html=1;whiteSpace=wrap;connectable=0;strokeColor=inherit;overflow=hidden;fillColor=none;top=0;left=0;bottom=0;right=0;pointerEvents=1;spacingLeft=7;spacingRight=7;" parent="5DFN9uElky3kn-lGwo1o-6" vertex="1">
          <mxGeometry x="160" width="440" height="43" as="geometry">
            <mxRectangle width="440" height="43" as="alternateBounds" />
          </mxGeometry>
        </mxCell>
        <mxCell id="5DFN9uElky3kn-lGwo1o-10" value="" style="shape=tableRow;horizontal=0;startSize=0;swimlaneHead=0;swimlaneBody=0;strokeColor=inherit;top=0;left=0;bottom=0;right=0;collapsible=0;dropTarget=0;fillColor=none;points=[[0,0.5],[1,0.5]];portConstraint=eastwest;" parent="5DFN9uElky3kn-lGwo1o-1" vertex="1">
          <mxGeometry y="43" width="600" height="44" as="geometry" />
        </mxCell>
        <mxCell id="5DFN9uElky3kn-lGwo1o-11" value="&lt;b&gt;Акторы&lt;/b&gt;" style="shape=partialRectangle;html=1;whiteSpace=wrap;connectable=0;strokeColor=inherit;overflow=hidden;fillColor=none;top=0;left=0;bottom=0;right=0;pointerEvents=1;" parent="5DFN9uElky3kn-lGwo1o-10" vertex="1">
          <mxGeometry width="160" height="44" as="geometry">
            <mxRectangle width="160" height="44" as="alternateBounds" />
          </mxGeometry>
        </mxCell>
        <mxCell id="5DFN9uElky3kn-lGwo1o-13" value="пользователь1&lt;br&gt;пользователь2" style="shape=partialRectangle;html=1;whiteSpace=wrap;connectable=0;strokeColor=inherit;overflow=hidden;fillColor=none;top=0;left=0;bottom=0;right=0;pointerEvents=1;spacingLeft=7;spacingRight=7;" parent="5DFN9uElky3kn-lGwo1o-10" vertex="1">
          <mxGeometry x="160" width="440" height="44" as="geometry">
            <mxRectangle width="440" height="44" as="alternateBounds" />
          </mxGeometry>
        </mxCell>
        <mxCell id="5DFN9uElky3kn-lGwo1o-14" value="" style="shape=tableRow;horizontal=0;startSize=0;swimlaneHead=0;swimlaneBody=0;strokeColor=inherit;top=0;left=0;bottom=0;right=0;collapsible=0;dropTarget=0;fillColor=none;points=[[0,0.5],[1,0.5]];portConstraint=eastwest;" parent="5DFN9uElky3kn-lGwo1o-1" vertex="1">
          <mxGeometry y="87" width="600" height="43" as="geometry" />
        </mxCell>
        <mxCell id="5DFN9uElky3kn-lGwo1o-15" value="&lt;b&gt;Предусловие&lt;/b&gt;" style="shape=partialRectangle;html=1;whiteSpace=wrap;connectable=0;strokeColor=inherit;overflow=hidden;fillColor=none;top=0;left=0;bottom=0;right=0;pointerEvents=1;" parent="5DFN9uElky3kn-lGwo1o-14" vertex="1">
          <mxGeometry width="160" height="43" as="geometry">
            <mxRectangle width="160" height="43" as="alternateBounds" />
          </mxGeometry>
        </mxCell>
        <mxCell id="5DFN9uElky3kn-lGwo1o-17" value="Пользователь1&amp;nbsp;зарегистрирован и авторизован в приложении&amp;nbsp;" style="shape=partialRectangle;html=1;whiteSpace=wrap;connectable=0;strokeColor=inherit;overflow=hidden;fillColor=none;top=0;left=0;bottom=0;right=0;pointerEvents=1;spacingLeft=7;spacingRight=7;" parent="5DFN9uElky3kn-lGwo1o-14" vertex="1">
          <mxGeometry x="160" width="440" height="43" as="geometry">
            <mxRectangle width="440" height="43" as="alternateBounds" />
          </mxGeometry>
        </mxCell>
        <mxCell id="5DFN9uElky3kn-lGwo1o-18" value="" style="shape=tableRow;horizontal=0;startSize=0;swimlaneHead=0;swimlaneBody=0;strokeColor=inherit;top=0;left=0;bottom=0;right=0;collapsible=0;dropTarget=0;fillColor=none;points=[[0,0.5],[1,0.5]];portConstraint=eastwest;" parent="5DFN9uElky3kn-lGwo1o-1" vertex="1">
          <mxGeometry y="130" width="600" height="66" as="geometry" />
        </mxCell>
        <mxCell id="5DFN9uElky3kn-lGwo1o-19" value="&lt;b&gt;Ограничения&lt;/b&gt;" style="shape=partialRectangle;html=1;whiteSpace=wrap;connectable=0;strokeColor=inherit;overflow=hidden;fillColor=none;top=0;left=0;bottom=0;right=0;pointerEvents=1;" parent="5DFN9uElky3kn-lGwo1o-18" vertex="1">
          <mxGeometry width="160" height="66" as="geometry">
            <mxRectangle width="160" height="66" as="alternateBounds" />
          </mxGeometry>
        </mxCell>
        <mxCell id="5DFN9uElky3kn-lGwo1o-21" value="Наличие хотя бы одного товара в корзине&amp;nbsp;&lt;span style=&quot;text-align: left;&quot;&gt;пользователя1&lt;/span&gt;&amp;nbsp;" style="shape=partialRectangle;html=1;whiteSpace=wrap;connectable=0;strokeColor=inherit;overflow=hidden;fillColor=none;top=0;left=0;bottom=0;right=0;pointerEvents=1;spacingLeft=7;spacingRight=7;" parent="5DFN9uElky3kn-lGwo1o-18" vertex="1">
          <mxGeometry x="160" width="440" height="66" as="geometry">
            <mxRectangle width="440" height="66" as="alternateBounds" />
          </mxGeometry>
        </mxCell>
        <mxCell id="5DFN9uElky3kn-lGwo1o-22" value="" style="shape=tableRow;horizontal=0;startSize=0;swimlaneHead=0;swimlaneBody=0;strokeColor=inherit;top=0;left=0;bottom=0;right=0;collapsible=0;dropTarget=0;fillColor=none;points=[[0,0.5],[1,0.5]];portConstraint=eastwest;" parent="5DFN9uElky3kn-lGwo1o-1" vertex="1">
          <mxGeometry y="196" width="600" height="43" as="geometry" />
        </mxCell>
        <mxCell id="5DFN9uElky3kn-lGwo1o-23" value="&lt;b&gt;Триггер&lt;/b&gt;" style="shape=partialRectangle;html=1;whiteSpace=wrap;connectable=0;strokeColor=inherit;overflow=hidden;fillColor=none;top=0;left=0;bottom=0;right=0;pointerEvents=1;" parent="5DFN9uElky3kn-lGwo1o-22" vertex="1">
          <mxGeometry width="160" height="43" as="geometry">
            <mxRectangle width="160" height="43" as="alternateBounds" />
          </mxGeometry>
        </mxCell>
        <mxCell id="5DFN9uElky3kn-lGwo1o-25" value="&lt;br&gt;&lt;span style=&quot;color: rgb(0, 0, 0); font-family: Helvetica; font-size: 12px; font-style: normal; font-variant-ligatures: normal; font-variant-caps: normal; font-weight: 400; letter-spacing: normal; orphans: 2; text-align: center; text-indent: 0px; text-transform: none; widows: 2; word-spacing: 0px; -webkit-text-stroke-width: 0px; white-space: normal; background-color: rgb(251, 251, 251); text-decoration-thickness: initial; text-decoration-style: initial; text-decoration-color: initial; display: inline !important; float: none;&quot;&gt;Пользователь1 начинает собирать товары в корзину&lt;/span&gt;&lt;div&gt;&lt;br&gt;&lt;/div&gt;" style="shape=partialRectangle;html=1;whiteSpace=wrap;connectable=0;strokeColor=inherit;overflow=hidden;fillColor=none;top=0;left=0;bottom=0;right=0;pointerEvents=1;spacingLeft=7;spacingRight=7;" parent="5DFN9uElky3kn-lGwo1o-22" vertex="1">
          <mxGeometry x="160" width="440" height="43" as="geometry">
            <mxRectangle width="440" height="43" as="alternateBounds" />
          </mxGeometry>
        </mxCell>
        <mxCell id="5DFN9uElky3kn-lGwo1o-26" value="" style="shape=tableRow;horizontal=0;startSize=0;swimlaneHead=0;swimlaneBody=0;strokeColor=inherit;top=0;left=0;bottom=0;right=0;collapsible=0;dropTarget=0;fillColor=none;points=[[0,0.5],[1,0.5]];portConstraint=eastwest;" parent="5DFN9uElky3kn-lGwo1o-1" vertex="1">
          <mxGeometry y="239" width="600" height="325" as="geometry" />
        </mxCell>
        <mxCell id="5DFN9uElky3kn-lGwo1o-27" value="&lt;b&gt;Основной сценарий&lt;/b&gt;" style="shape=partialRectangle;html=1;whiteSpace=wrap;connectable=0;strokeColor=inherit;overflow=hidden;fillColor=none;top=0;left=0;bottom=0;right=0;pointerEvents=1;" parent="5DFN9uElky3kn-lGwo1o-26" vertex="1">
          <mxGeometry width="160" height="325" as="geometry">
            <mxRectangle width="160" height="325" as="alternateBounds" />
          </mxGeometry>
        </mxCell>
        <mxCell id="5DFN9uElky3kn-lGwo1o-29" value="&lt;ol style=&quot;&quot;&gt;&lt;li&gt;Система отображает каталог товаров (экран 2)&lt;/li&gt;&lt;li&gt;&lt;span style=&quot;&quot;&gt;Пользователь1&amp;nbsp;&lt;/span&gt;выбирает товары и количество товаров&lt;/li&gt;&lt;li&gt;Система отображает экран с собранными товарами в корзине (экран 3)&lt;/li&gt;&lt;li&gt;&lt;span style=&quot;&quot;&gt;Пользователь1 нажимает на кнопку &quot;поделиться корзиной&quot;&amp;nbsp;&lt;/span&gt;&lt;/li&gt;&lt;li&gt;Система предлагает выбрать контакт и способы отправки корзины (экран 5)&lt;/li&gt;&lt;li&gt;&lt;span style=&quot;&quot;&gt;Пользователь1 выбирает&amp;nbsp;&amp;nbsp;&lt;/span&gt;через какое приложение отправить корзину и с кем поделиться (&lt;span style=&quot;&quot;&gt;пользователь2&lt;/span&gt;) и отправляет корзину&amp;nbsp; сообщением в виде ссылки на корзину в приложении&lt;/li&gt;&lt;li&gt;В зависимости от выбранного приложения, открывается сторонний сервис, где создается сообщение&amp;nbsp; с отправленной ссылкой для&amp;nbsp;&lt;span style=&quot;&quot;&gt;пользователя2 (экран 6)&lt;/span&gt;&lt;/li&gt;&lt;li style=&quot;&quot;&gt;У&amp;nbsp;пользователя2 успешно открылась корзина (экран3)&lt;/li&gt;&lt;/ol&gt;&lt;span style=&quot;background-color: initial;&quot;&gt;&lt;div style=&quot;&quot;&gt;&lt;b style=&quot;font-weight: bold; background-color: initial;&quot;&gt;&lt;span style=&quot;white-space: pre;&quot;&gt;&#x9;&lt;/span&gt;&lt;/b&gt;&lt;b style=&quot;font-weight: bold; background-color: initial;&quot;&gt;Критерий успеха: &lt;/b&gt;&lt;span style=&quot;background-color: initial;&quot;&gt;Пользователь2 получил список товаров в приложении от пользователя1&lt;/span&gt;&lt;/div&gt;&lt;/span&gt;" style="shape=partialRectangle;html=1;whiteSpace=wrap;connectable=0;strokeColor=inherit;overflow=hidden;fillColor=none;top=0;left=0;bottom=0;right=0;pointerEvents=1;spacingLeft=7;spacingRight=7;align=left;" parent="5DFN9uElky3kn-lGwo1o-26" vertex="1">
          <mxGeometry x="160" width="440" height="325" as="geometry">
            <mxRectangle width="440" height="325" as="alternateBounds" />
          </mxGeometry>
        </mxCell>
        <mxCell id="5DFN9uElky3kn-lGwo1o-30" value="" style="shape=tableRow;horizontal=0;startSize=0;swimlaneHead=0;swimlaneBody=0;strokeColor=inherit;top=0;left=0;bottom=0;right=0;collapsible=0;dropTarget=0;fillColor=none;points=[[0,0.5],[1,0.5]];portConstraint=eastwest;" parent="5DFN9uElky3kn-lGwo1o-1" vertex="1">
          <mxGeometry y="564" width="600" height="217" as="geometry" />
        </mxCell>
        <mxCell id="5DFN9uElky3kn-lGwo1o-31" value="&lt;b&gt;Альтернативный сценарий&lt;/b&gt;" style="shape=partialRectangle;html=1;whiteSpace=wrap;connectable=0;strokeColor=inherit;overflow=hidden;fillColor=none;top=0;left=0;bottom=0;right=0;pointerEvents=1;" parent="5DFN9uElky3kn-lGwo1o-30" vertex="1">
          <mxGeometry width="160" height="217" as="geometry">
            <mxRectangle width="160" height="217" as="alternateBounds" />
          </mxGeometry>
        </mxCell>
        <mxCell id="5DFN9uElky3kn-lGwo1o-33" value="&lt;span style=&quot;background-color: initial;&quot;&gt;&lt;span style=&quot;white-space: pre;&quot;&gt;&#x9;&lt;/span&gt;4а.&amp;nbsp;&lt;/span&gt;пользователь1 не отправил собранную корзину в момент его сборки и вышел с приложения&amp;nbsp;&lt;br&gt;&lt;span style=&quot;background-color: initial;&quot;&gt;&lt;span style=&quot;white-space: pre;&quot;&gt;&#x9;&lt;/span&gt;5а.&amp;nbsp;&lt;/span&gt;пользователя1 заходит в приложение через некоторое время, система отображает главный экран.&lt;div&gt;&amp;nbsp; &amp;nbsp; &amp;nbsp; &amp;nbsp; 6а. пользователь1&amp;nbsp; заходит в историю покупок через главный экран и находит автосохраненную корзину (экран 1 - экран 4)&lt;br&gt;&lt;span style=&quot;white-space: pre;&quot;&gt;&#x9;&lt;/span&gt;-- Переход к шагу 4 основного сценария&lt;/div&gt;" style="shape=partialRectangle;html=1;whiteSpace=wrap;connectable=0;strokeColor=inherit;overflow=hidden;fillColor=none;top=0;left=0;bottom=0;right=0;pointerEvents=1;align=left;spacingLeft=7;spacingRight=7;" parent="5DFN9uElky3kn-lGwo1o-30" vertex="1">
          <mxGeometry x="160" width="440" height="217" as="geometry">
            <mxRectangle width="440" height="217" as="alternateBounds" />
          </mxGeometry>
        </mxCell>
        <mxCell id="5DFN9uElky3kn-lGwo1o-34" value="" style="shape=tableRow;horizontal=0;startSize=0;swimlaneHead=0;swimlaneBody=0;strokeColor=inherit;top=0;left=0;bottom=0;right=0;collapsible=0;dropTarget=0;fillColor=none;points=[[0,0.5],[1,0.5]];portConstraint=eastwest;" parent="5DFN9uElky3kn-lGwo1o-1" vertex="1">
          <mxGeometry y="781" width="600" height="109" as="geometry" />
        </mxCell>
        <mxCell id="5DFN9uElky3kn-lGwo1o-35" value="&lt;b&gt;Исключительный сценарий&lt;/b&gt;" style="shape=partialRectangle;html=1;whiteSpace=wrap;connectable=0;strokeColor=inherit;overflow=hidden;fillColor=none;top=0;left=0;bottom=0;right=0;pointerEvents=1;" parent="5DFN9uElky3kn-lGwo1o-34" vertex="1">
          <mxGeometry width="160" height="109" as="geometry">
            <mxRectangle width="160" height="109" as="alternateBounds" />
          </mxGeometry>
        </mxCell>
        <mxCell id="5DFN9uElky3kn-lGwo1o-37" value="&lt;div style=&quot;text-align: left;&quot;&gt;&lt;span style=&quot;background-color: initial;&quot;&gt;&lt;span style=&quot;white-space: pre;&quot;&gt;&#x9;&lt;/span&gt;8b. У пользователя2 не открывается корзина по ссылке полученной от пользователя1, так как у него не установлено данное приложение.&lt;/span&gt;&lt;/div&gt;&lt;div style=&quot;text-align: left;&quot;&gt;&lt;span style=&quot;background-color: initial;&quot;&gt;&amp;nbsp; &amp;nbsp; &amp;nbsp; &amp;nbsp; 9b. В таком случае у&amp;nbsp;&amp;nbsp;&lt;/span&gt;&lt;span style=&quot;background-color: initial;&quot;&gt;пользователя2 открывается&amp;nbsp; по ссылке play market/app store для установки данного приложения (экран7)&lt;/span&gt;&lt;/div&gt;&lt;div&gt;&lt;span style=&quot;text-align: left;&quot;&gt;&lt;br&gt;&lt;/span&gt;&lt;/div&gt;&lt;div style=&quot;text-align: left;&quot;&gt;&lt;b style=&quot;background-color: initial;&quot;&gt;&lt;span style=&quot;white-space: pre;&quot;&gt;&#x9;&lt;/span&gt;Результат&lt;/b&gt;&lt;b style=&quot;background-color: initial;&quot;&gt;:&amp;nbsp;&lt;/b&gt;&lt;span style=&quot;background-color: initial;&quot;&gt;Пользователь2 не смог успешно открыть список товаров полученной от&amp;nbsp; пользователя1, установка приложения поможет устранить данную проблему&lt;/span&gt;&lt;span style=&quot;text-align: left;&quot;&gt;&lt;br&gt;&lt;/span&gt;&lt;/div&gt;" style="shape=partialRectangle;html=1;whiteSpace=wrap;connectable=0;strokeColor=inherit;overflow=hidden;fillColor=none;top=0;left=0;bottom=0;right=0;pointerEvents=1;spacingLeft=7;spacingRight=7;" parent="5DFN9uElky3kn-lGwo1o-34" vertex="1">
          <mxGeometry x="160" width="440" height="109" as="geometry">
            <mxRectangle width="440" height="109" as="alternateBounds" />
          </mxGeometry>
        </mxCell>
      </root>
    </mxGraphModel>
  </diagram>
</mxfile>
